<?xml version="1.0" encoding="UTF-8" standalone="no"?>
<!DOCTYPE svg PUBLIC "-//W3C//DTD SVG 1.1//EN" "http://www.w3.org/Graphics/SVG/1.1/DTD/svg11.dtd">
<!-- Created with Vectornator (http://vectornator.io/) -->
<svg height="100%" stroke-miterlimit="10" style="fill-rule:nonzero;clip-rule:evenodd;stroke-linecap:round;stroke-linejoin:round;" version="1.1" viewBox="0 0 179 519" width="100%" xml:space="preserve" xmlns="http://www.w3.org/2000/svg" xmlns:vectornator="http://vectornator.io" xmlns:xlink="http://www.w3.org/1999/xlink">
<defs/>
<clipPath id="ArtboardFrame">
<rect height="519" width="179" x="0" y="0"/>
</clipPath>
<g clip-path="url(#ArtboardFrame)" id="Untitled" vectornator:layerName="Untitled">
<g opacity="1" vectornator:layerName="g">
<path d="M18.1426 156.78C18.8026 157.35 19.6026 156.94 20.1026 156.95C66.3559 157.423 112.609 157.433 158.863 156.98C159.723 156.973 160.383 156.87 160.843 156.67C161.127 156.556 161.288 156.256 161.228 155.955C161.167 155.654 160.901 155.434 160.593 155.43L150.923 155.36" fill="none" opacity="1" stroke="#767676" stroke-linecap="butt" stroke-linejoin="miter" stroke-width="2" vectornator:layerName="path"/>
<path d="M160.883 138.44L161.113 31.6996C161.113 31.3396 160.933 31.1596 160.573 31.1596L18.6626 31.0196C18.2892 31.0196 18.1059 31.2029 18.1126 31.5696C18.4059 65.5629 18.6726 99.5596 18.9126 133.56C18.9259 135.146 18.8159 136.676 18.5826 138.15C18.5535 138.35 18.6118 138.554 18.7423 138.707C18.8727 138.861 19.0626 138.949 19.2626 138.95L154.843 138.99" fill="none" opacity="1" stroke="#6c6d6d" stroke-linecap="butt" stroke-linejoin="miter" stroke-width="2" vectornator:layerName="path"/>
<path d="M150.923 155.36C106.969 155.173 63.0659 155.073 19.2126 155.06C18.6592 155.06 18.3192 155.19 18.1926 155.45C18.0392 155.75 18.0226 156.193 18.1426 156.78" fill="none" opacity="1" stroke="#6c6d6d" stroke-linecap="butt" stroke-linejoin="miter" stroke-width="2" vectornator:layerName="path"/>
<path d="M160.883 138.44C159.136 139.04 157.123 139.223 154.843 138.99" fill="none" opacity="1" stroke="#767676" stroke-linecap="butt" stroke-linejoin="miter" stroke-width="2" vectornator:layerName="path"/>
<path d="M90.8526 183.02C92.9726 184.386 95.0492 185.83 97.0826 187.35C97.3292 187.536 97.5526 187.613 97.7526 187.58C98.0392 187.526 98.2792 187.343 98.4726 187.03C98.6341 186.777 98.568 186.442 98.3226 186.27L90.9226 181.04C90.5959 180.806 90.2659 180.803 89.9326 181.03C87.5792 182.616 85.2526 184.233 82.9526 185.88C82.7392 186.04 82.5859 186.22 82.4926 186.42C82.3992 186.626 82.3459 186.806 82.3326 186.96C82.3135 187.217 82.4441 187.463 82.6683 187.591C82.8925 187.719 83.1704 187.707 83.3826 187.56L89.9326 183.03C90.2047 182.841 90.5675 182.837 90.8526 183.02" fill="none" opacity="1" stroke="#767676" stroke-linecap="butt" stroke-linejoin="miter" stroke-width="2" vectornator:layerName="path"/>
<path d="M159.983 210.87L19.0826 210.5C18.7341 210.501 18.4191 210.71 18.2853 211.031C18.1515 211.351 18.2255 211.718 18.4726 211.96C19.0392 212.52 19.8092 212.756 20.7826 212.67C26.9926 212.11 33.6626 212.41 39.9026 212.53C73.4726 213.17 107.213 213.12 140.773 212.44C147.226 212.313 153.729 212.446 160.283 212.84C160.577 212.859 160.857 212.713 161.012 212.46C161.166 212.207 161.171 211.888 161.023 211.63L160.873 211.38C160.673 211.04 160.376 210.87 159.983 210.87" fill="none" opacity="1" stroke="#767676" stroke-linecap="butt" stroke-linejoin="miter" stroke-width="2" vectornator:layerName="path"/>
<path d="M97.0624 239.151C97.0597 238.737 93.9458 238.423 90.1074 238.45C86.2691 238.476 83.1599 238.834 83.1628 239.248C83.1655 239.662 86.2794 239.976 90.1178 239.95C93.956 239.923 97.0652 239.565 97.0624 239.151" fill="none" opacity="1" stroke="#a1a09f" stroke-linecap="butt" stroke-linejoin="miter" stroke-width="2" vectornator:layerName="path"/>
<path d="M160.873 266.91C160.873 266.302 160.38 265.81 159.773 265.81L19.9926 265.81C19.385 265.81 18.8926 266.302 18.8926 266.91L18.8926 266.95C18.8926 267.557 19.385 268.05 19.9926 268.05L159.773 268.05C160.38 268.05 160.873 267.557 160.873 266.95L160.873 266.91" fill="none" opacity="1" stroke="#767676" stroke-linecap="butt" stroke-linejoin="miter" stroke-width="2" vectornator:layerName="path"/>
<path d="M83.1926 293.53C85.3392 294.963 87.3892 296.35 89.3426 297.69C89.8005 298.008 90.4099 298.008 90.8726 297.69L98.2526 292.51C98.4882 292.344 98.5892 292.045 98.5023 291.77C98.4154 291.496 98.1605 291.309 97.8726 291.31L97.3526 291.31C97.203 291.31 97.0529 291.359 96.9226 291.45L90.5826 295.9C90.2759 296.113 89.9692 296.113 89.6626 295.9L83.4326 291.49C83.1198 291.275 82.7011 291.299 82.4156 291.549C82.1302 291.799 82.0507 292.211 82.2226 292.55C82.4092 292.896 82.7326 293.223 83.1926 293.53" fill="none" opacity="1" stroke="#767676" stroke-linecap="butt" stroke-linejoin="miter" stroke-width="2" vectornator:layerName="path"/>
<path d="M88.3026 375.19L19.7826 375.47C19.3826 375.47 19.1826 375.67 19.1826 376.07L19.1826 376.64C19.1826 377.046 19.3892 377.253 19.8026 377.26C66.3626 377.42 112.923 377.353 159.483 377.06C159.783 377.06 160.016 376.996 160.183 376.87C160.576 376.556 160.586 376.163 160.213 375.69C160.037 375.456 159.762 375.319 159.473 375.32L92.3526 375.29C91.5259 375.29 91.1126 374.876 91.1126 374.05L91.1126 323.33C91.1126 323.042 91.3454 322.81 91.6326 322.81C114.173 322.816 136.736 322.813 159.323 322.8C159.716 322.8 160.026 322.743 160.253 322.63C160.766 322.363 160.953 321.946 160.813 321.38C160.73 321.045 160.433 320.81 160.093 320.81L19.6226 320.81C19.2892 320.81 19.1092 320.973 19.0826 321.3L19.0226 322.11C18.9892 322.576 19.2026 322.81 19.6626 322.81L88.3626 322.81C88.6959 322.81 88.8626 322.976 88.8626 323.31L88.8626 374.63C88.8626 375.003 88.6759 375.19 88.3026 375.19" fill="none" opacity="1" stroke="#767676" stroke-linecap="butt" stroke-linejoin="miter" stroke-width="2" vectornator:layerName="path"/>
<path d="M43.6226 355.35L40.1126 350.33C39.6824 349.715 39.6944 348.891 40.1426 348.28C41.2959 346.74 42.4992 344.966 43.7526 342.96C43.8992 342.726 43.8192 342.54 43.5126 342.4C43.2861 342.296 43.0176 342.367 42.8726 342.57L38.3526 348.89C38.1126 349.223 38.1159 349.556 38.3626 349.89L42.8426 355.92C43 356.135 43.3022 356.182 43.5176 356.025C43.733 355.867 43.78 355.565 43.6226 355.35" fill="none" opacity="1" stroke="#767676" stroke-linecap="butt" stroke-linejoin="miter" stroke-width="2" vectornator:layerName="path"/>
<path d="M140.163 349.9C138.043 352.733 136.713 354.556 136.173 355.37C135.973 355.663 136.026 355.916 136.333 356.13C136.646 356.35 136.916 356.306 137.143 356L141.613 349.89C141.799 349.623 141.803 349.356 141.623 349.09C140.209 347.003 138.713 344.986 137.133 343.04C136.986 342.86 136.803 342.786 136.583 342.82C136.411 342.843 136.265 342.956 136.199 343.119C136.133 343.281 136.157 343.468 136.263 343.61L140.163 348.94C140.396 349.26 140.396 349.58 140.163 349.9" fill="none" opacity="1" stroke="#767676" stroke-linecap="butt" stroke-linejoin="miter" stroke-width="2" vectornator:layerName="path"/>
<path d="M0 23.9516C0 10.7235 10.7235-7.10543e-15 23.9516-7.10543e-15L154.591-7.10543e-15C167.819-7.10543e-15 178.543 10.7235 178.543 23.9516L178.543 494.848C178.543 508.076 167.819 518.799 154.591 518.799L23.9516 518.799C10.7235 518.799 0 508.076 0 494.848C0 494.848 0 369.565 0 251.841C0 134.117 0 23.9516 0 23.9516Z" fill="none" opacity="1" stroke="#000000" stroke-linecap="butt" stroke-linejoin="miter" stroke-width="2" vectornator:layerName="Rectangle 1"/>
</g>
<path d="M177.313 189.25C177.263 195.53 177.733 202.05 177.543 208C176.703 235.36 178.383 266.13 177.283 285.75C176.583 298.25 177.243 310.78 176.773 323.31C176.739 324.13 176.353 324.4 175.613 324.12C175.339 324.013 175.206 323.813 175.213 323.52C175.899 287.993 176.056 252.47 175.683 216.95C175.623 211.32 174.723 200.69 175.393 192.4C175.886 186.4 176.136 182.156 176.143 179.67C176.263 147.716 176.236 115.763 176.063 83.8096C176.256 64.2229 176.519 44.6396 176.853 25.0596C177.083 11.3696 167.923 3.51959 154.883 3.55959C113.229 3.65959 71.5759 3.54293 29.9226 3.20959C25.8526 3.17959 18.7426 2.73959 14.2826 4.74959C1.02256 10.7496 2.24256 20.6396 2.32256 35.1796C2.54923 74.7863 2.73256 114.403 2.87256 154.03L1.45256 153.8C1.5859 146.72 1.6159 133.66 1.54256 114.62C1.42923 85.9129 1.28256 57.1996 1.10256 28.4796C1.06923 23.0663 1.5059 18.9996 2.41256 16.2796C6.46256 4.18959 16.3626 1.19959 28.2426 1.44959C35.2959 1.60293 42.3559 1.67959 49.4226 1.67959C84.5692 1.66626 119.713 1.79959 154.853 2.07959C165.573 2.16626 172.656 6.34293 176.103 14.6096C177.456 17.8429 178.219 23.0696 178.393 30.2896C178.683 42.1296 178.153 56.0996 178.143 65.7396C178.123 97.8896 178.723 130.36 177.563 162.33C177.253 170.97 177.723 180.27 177.313 189.25Z" fill="#ffffff" fill-rule="nonzero" opacity="1" stroke="none" vectornator:layerName="path"/>
<path d="M160.883 138.44C159.136 139.04 157.123 139.223 154.843 138.99L19.2626 138.95C19.0626 138.949 18.8727 138.861 18.7423 138.707C18.6118 138.554 18.5535 138.35 18.5826 138.15C18.8159 136.676 18.9259 135.146 18.9126 133.56C18.6726 99.5596 18.4059 65.5629 18.1126 31.5696C18.1059 31.2029 18.2892 31.0196 18.6626 31.0196L160.573 31.1596C160.933 31.1596 161.113 31.3396 161.113 31.6996L160.883 138.44Z" fill="#1b1c1d" fill-rule="nonzero" opacity="1" stroke="none" vectornator:layerName="path"/>
<path d="M150.923 155.36L160.593 155.43C160.901 155.434 161.167 155.654 161.228 155.955C161.288 156.256 161.127 156.556 160.843 156.67C160.383 156.87 159.723 156.973 158.863 156.98C112.609 157.433 66.3559 157.423 20.1026 156.95C19.6026 156.94 18.8026 157.35 18.1426 156.78C18.0226 156.193 18.0392 155.75 18.1926 155.45C18.3192 155.19 18.6592 155.06 19.2126 155.06C63.0659 155.073 106.969 155.173 150.923 155.36Z" fill="#1b1c1d" fill-rule="nonzero" opacity="1" stroke="none" vectornator:layerName="path"/>
<path d="M89.9326 183.03L83.3826 187.56C83.1704 187.707 82.8925 187.719 82.6683 187.591C82.4441 187.463 82.3135 187.217 82.3326 186.96C82.3459 186.806 82.3992 186.626 82.4926 186.42C82.5859 186.22 82.7392 186.04 82.9526 185.88C85.2526 184.233 87.5792 182.616 89.9326 181.03C90.2659 180.803 90.5959 180.806 90.9226 181.04L98.3226 186.27C98.568 186.442 98.6341 186.777 98.4726 187.03C98.2792 187.343 98.0392 187.526 97.7526 187.58C97.5526 187.613 97.3292 187.536 97.0826 187.35C95.0492 185.83 92.9726 184.386 90.8526 183.02C90.5675 182.837 90.2047 182.841 89.9326 183.03Z" fill="#1b1c1d" fill-rule="nonzero" opacity="1" stroke="none" vectornator:layerName="path"/>
<path d="M19.0826 210.5L159.983 210.87C160.376 210.87 160.673 211.04 160.873 211.38L161.023 211.63C161.171 211.888 161.166 212.207 161.012 212.46C160.857 212.713 160.577 212.859 160.283 212.84C153.729 212.446 147.226 212.313 140.773 212.44C107.213 213.12 73.4726 213.17 39.9026 212.53C33.6626 212.41 26.9926 212.11 20.7826 212.67C19.8092 212.756 19.0392 212.52 18.4726 211.96C18.2255 211.718 18.1515 211.351 18.2853 211.031C18.4191 210.71 18.7341 210.501 19.0826 210.5Z" fill="#1b1c1d" fill-rule="nonzero" opacity="1" stroke="none" vectornator:layerName="path"/>
<path d="M83.1627 239.248C83.1598 238.834 86.269 238.476 90.1073 238.45C93.9456 238.423 97.0595 238.737 97.0624 239.151C97.0653 239.565 93.9561 239.923 90.1178 239.95C86.2795 239.976 83.1656 239.662 83.1627 239.248Z" fill="#717170" fill-rule="nonzero" opacity="1" stroke="none" vectornator:layerName="ellipse"/>
<path d="M19.9926 265.81L159.773 265.81C160.38 265.81 160.873 266.302 160.873 266.91L160.873 266.95C160.873 267.557 160.38 268.05 159.773 268.05L19.9926 268.05C19.385 268.05 18.8926 267.557 18.8926 266.95L18.8926 266.91C18.8926 266.302 19.385 265.81 19.9926 265.81Z" fill="#1b1c1d" fill-rule="nonzero" opacity="1" stroke="none" vectornator:layerName="rect"/>
<path d="M83.1926 293.53C82.7326 293.223 82.4092 292.896 82.2226 292.55C82.0507 292.211 82.1302 291.799 82.4156 291.549C82.7011 291.299 83.1198 291.275 83.4326 291.49L89.6626 295.9C89.9692 296.113 90.2759 296.113 90.5826 295.9L96.9226 291.45C97.0529 291.359 97.203 291.31 97.3526 291.31L97.8726 291.31C98.1605 291.309 98.4154 291.496 98.5023 291.77C98.5892 292.045 98.4882 292.344 98.2526 292.51L90.8726 297.69C90.4099 298.008 89.8005 298.008 89.3426 297.69C87.3892 296.35 85.3392 294.963 83.1926 293.53Z" fill="#1b1c1d" fill-rule="nonzero" opacity="1" stroke="none" vectornator:layerName="path"/>
<path d="M88.8626 374.63L88.8626 323.31C88.8626 322.976 88.6959 322.81 88.3626 322.81L19.6626 322.81C19.2026 322.81 18.9892 322.576 19.0226 322.11L19.0826 321.3C19.1092 320.973 19.2892 320.81 19.6226 320.81L160.093 320.81C160.433 320.81 160.73 321.045 160.813 321.38C160.953 321.946 160.766 322.363 160.253 322.63C160.026 322.743 159.716 322.8 159.323 322.8C136.736 322.813 114.173 322.816 91.6326 322.81C91.3454 322.81 91.1126 323.042 91.1126 323.33L91.1126 374.05C91.1126 374.876 91.5259 375.29 92.3526 375.29L159.473 375.32C159.762 375.319 160.037 375.456 160.213 375.69C160.586 376.163 160.576 376.556 160.183 376.87C160.016 376.996 159.783 377.06 159.483 377.06C112.923 377.353 66.3626 377.42 19.8026 377.26C19.3892 377.253 19.1826 377.046 19.1826 376.64L19.1826 376.07C19.1826 375.67 19.3826 375.47 19.7826 375.47L88.3026 375.19C88.6759 375.19 88.8626 375.003 88.8626 374.63Z" fill="#1b1c1d" fill-rule="nonzero" opacity="1" stroke="none" vectornator:layerName="path"/>
<path d="M42.8426 355.92L38.3626 349.89C38.1159 349.556 38.1126 349.223 38.3526 348.89L42.8726 342.57C43.0176 342.367 43.2861 342.296 43.5126 342.4C43.8192 342.54 43.8992 342.726 43.7526 342.96C42.4992 344.966 41.2959 346.74 40.1426 348.28C39.6944 348.891 39.6824 349.715 40.1126 350.33L43.6226 355.35C43.78 355.565 43.733 355.867 43.5176 356.025C43.3022 356.182 43 356.135 42.8426 355.92Z" fill="#1b1c1d" fill-rule="nonzero" opacity="1" stroke="none" vectornator:layerName="path"/>
<path d="M140.163 348.94L136.263 343.61C136.157 343.468 136.133 343.281 136.199 343.119C136.265 342.956 136.411 342.843 136.583 342.82C136.803 342.786 136.986 342.86 137.133 343.04C138.713 344.986 140.209 347.003 141.623 349.09C141.803 349.356 141.799 349.623 141.613 349.89L137.143 356C136.916 356.306 136.646 356.35 136.333 356.13C136.026 355.916 135.973 355.663 136.173 355.37C136.713 354.556 138.043 352.733 140.163 349.9C140.396 349.58 140.396 349.26 140.163 348.94Z" fill="#1b1c1d" fill-rule="nonzero" opacity="1" stroke="none" vectornator:layerName="path"/>
</g>
</svg>
