<?xml version="1.0" encoding="UTF-8" standalone="no"?>
<!DOCTYPE svg PUBLIC "-//W3C//DTD SVG 1.1//EN" "http://www.w3.org/Graphics/SVG/1.1/DTD/svg11.dtd">
<!-- Created with Vectornator (http://vectornator.io/) -->
<svg height="100%" stroke-miterlimit="10" style="fill-rule:nonzero;clip-rule:evenodd;stroke-linecap:round;stroke-linejoin:round;" version="1.1" viewBox="0 0 655.25 105.03" width="100%" xml:space="preserve" xmlns="http://www.w3.org/2000/svg" xmlns:xlink="http://www.w3.org/1999/xlink">
<defs/>
<g id="logo">
<path d="M170.94 100.24C145.86 92.62 134.75 70.81 137.56 45.75C140.38 20.55 156.15 6.67998 180.76 2.24998C209.36-2.89002 257.4-1.43002 268.49 33.66C271.663 43.7067 272.173 54.3 270.02 65.44C264.24 95.43 236.77 103.31 210.35 104.83C196.723 105.617 183.587 104.087 170.94 100.24ZM179.52 45.58C177.31 58.77 180.56 74.22 195.76 77.92C218.96 83.55 233.34 68.05 228.99 45.43C225.84 29.07 212.73 23.84 197.77 26.48C187.4 28.31 181.25 35.29 179.52 45.58Z" fill="#5fa223" fill-rule="nonzero" opacity="1" stroke="none"/>
<path d="M328.24 103.52C306.58 100.35 287.21 89.26 282.49 66.16C278.28 45.56 282.79 22.81 301.29 10.96C321.24-1.81002 353.15-1.90002 375.43 3.00998C394.98 7.31998 409.79 19.28 413.75 39.44C417.97 60.92 412.67 84.04 392.72 95.41C374.87 105.57 348.55 106.49 328.24 103.52ZM323.04 46.7C321.11 59.14 324.9 74.07 338.93 77.79C364.63 84.6 379.06 64.7 371.85 41.36C367.67 27.82 353.66 23.95 340.92 26.57C330.32 28.75 324.68 36.17 323.04 46.7Z" fill="#5fa223" fill-rule="nonzero" opacity="1" stroke="none"/>
<path d="M67.5 2.68998C101.32 2.69998 130.89 19.6 126.98 58.13C123.29 94.59 92.46 102.04 61.73 102.14C41.3167 102.207 20.9033 102.213 0.49 102.16C0.217852 102.155 5.90285e-05 101.937 0 101.67L0 3.18998C0 2.90832 0.223858 2.67998 0.5 2.67998C22.76 2.67332 45.0933 2.67665 67.5 2.68998ZM79.06 33.37C68.63 25.45 51.87 27.56 39.23 27.71C38.9649 27.71 38.75 27.9249 38.75 28.19L38.75 75.12C38.75 75.36 38.8667 75.4833 39.1 75.49C54.92 76.07 77.57 77.95 83.41 64.07C86.78 56.05 86.89 39.31 79.06 33.37Z" fill="#5fa223" fill-rule="nonzero" opacity="1" stroke="none"/>
<path d="M475.13 42.56L493.59 2.86998C493.644 2.75366 493.762 2.67953 493.89 2.67998L537.71 2.67998C537.828 2.681 537.937 2.7454 537.995 2.84873C538.053 2.95206 538.051 3.07848 537.99 3.17998L494.05 74.02C494.018 74.071 494.001 74.1298 494 74.19L494 101.85C494 102.032 493.852 102.18 493.67 102.18L455.58 102.18C455.398 102.18 455.25 102.032 455.25 101.85L455.25 74.38C455.249 74.3198 455.232 74.261 455.2 74.21L411.83 3.17998C411.769 3.07848 411.767 2.95206 411.825 2.84873C411.883 2.7454 411.992 2.681 412.11 2.67998L456.97 2.67998C457.104 2.67727 457.227 2.75639 457.28 2.87998L474.53 42.56C474.584 42.6773 474.701 42.7525 474.83 42.7525C474.959 42.7525 475.076 42.6773 475.13 42.56Z" fill="#5fa223" fill-rule="nonzero" opacity="1" stroke="none"/>
<path d="M609.91 92.43L568.49 92.43C568.293 92.4308 568.117 92.5546 568.05 92.74L564.81 101.87C564.743 102.055 564.567 102.179 564.37 102.18L523.77 102.18C523.609 102.183 523.458 102.105 523.369 101.971C523.28 101.837 523.265 101.667 523.33 101.52L566.04 2.95998C566.115 2.78974 566.284 2.67994 566.47 2.67998L614.87 2.67998C615.062 2.6776 615.236 2.79245 615.31 2.96998L655.21 101.53C655.271 101.676 655.254 101.843 655.165 101.973C655.076 102.104 654.928 102.182 654.77 102.18L613.72 102.18C613.518 102.176 613.34 102.043 613.28 101.85L610.35 92.76C610.29 92.5667 610.112 92.4337 609.91 92.43ZM577.52 67.16C577.484 67.2608 577.5 67.3726 577.561 67.46C577.623 67.5475 577.723 67.5996 577.83 67.6L601.09 67.76C601.197 67.7596 601.297 67.7075 601.359 67.62C601.42 67.5326 601.436 67.4208 601.4 67.32L590.01 34.19C589.969 34.0515 589.843 33.9555 589.699 33.9532C589.554 33.951 589.425 34.0428 589.38 34.18L577.52 67.16Z" fill="#5fa223" fill-rule="nonzero" opacity="1" stroke="none"/>
</g>
</svg>
